<svg id="Layer_1" data-name="Layer 1" xmlns="http://www.w3.org/2000/svg" xmlns:xlink="http://www.w3.org/1999/xlink" viewBox="0 0 588.42 288.68"><defs><style>.cls-1{fill:#fff;}.cls-2{fill:#f57c00;}.cls-3{fill:url(#Degradado_sin_nombre_22);}</style><linearGradient id="Degradado_sin_nombre_22" x1="42.15" y1="205.63" x2="42.15" y2="281.62" gradientUnits="userSpaceOnUse"><stop offset="0" stop-color="#fe0"/><stop offset="0.38" stop-color="#ffab17"/><stop offset="0.8" stop-color="#ff662f"/><stop offset="1" stop-color="#ff4a39"/></linearGradient></defs><path class="cls-1" d="M635.21,440.36h0a21.88,21.88,0,0,1,21.88,21.88v33A43.77,43.77,0,0,1,613.33,539h0a0,0,0,0,1,0,0V462.25A21.88,21.88,0,0,1,635.21,440.36Z" transform="translate(1024.47 602.36) rotate(180)"/><path class="cls-2" d="M570.67,537h0a21.55,21.55,0,0,0,21.55-21.56v-47a48.34,48.34,0,0,1,48.34-48.34h0A43.12,43.12,0,0,0,683.68,377H647.53a98.42,98.42,0,0,0-98.42,98.42v40.06A21.56,21.56,0,0,0,570.67,537Z" transform="translate(-245.96 -377)"/><path class="cls-2" d="M320.8,596.65c-.12-.89-.29-1.74-.48-2.57l-.21-.81c-.23-.81-.49-1.58-.78-2.33-.12-.31-.26-.62-.39-.92a20.13,20.13,0,0,0-10.52-10.15l-1-.43c-.37-.14-.74-.28-1.12-.4a20.54,20.54,0,0,0-6.62-1.07v0a21.21,21.21,0,0,0-12.81,4.21,20.57,20.57,0,0,0-3.33,3.14l0,0a20.66,20.66,0,0,0-3.31-3.17A21.21,21.21,0,0,0,267.39,578a21.65,21.65,0,0,0-6.62,1l-1.12.4c-.35.13-.7.28-1,.43a20.15,20.15,0,0,0-10,9.26c-.3.58-.57,1.19-.82,1.81a21.22,21.22,0,0,0-.78,2.33q-.12.4-.21.81a25.43,25.43,0,0,0-.48,2.57,32.9,32.9,0,0,0-.31,4.65v34.19a5.38,5.38,0,0,0,5.31,5.32,5.29,5.29,0,0,0,5.32-5.32V601.3q0-8.84,6.41-11.72l.53-.23a11.21,11.21,0,0,1,1.07-.36l.55-.14a10.65,10.65,0,0,1,6.69.73l.77.38a11,11,0,0,1,1.32.85q4.26,3.26,4.26,10.49v31.19a5.12,5.12,0,0,0,1.57,3.74,5.17,5.17,0,0,0,1.74,1.18l.48.18.51.12a4.9,4.9,0,0,0,1,.1,5.32,5.32,0,0,0,1.07-.1l.51-.12a4.91,4.91,0,0,0,1-.4,5.74,5.74,0,0,0,1.27-1,5.19,5.19,0,0,0,1.52-3.74V601.3q0-6.76,3.75-10a9.91,9.91,0,0,1,1.15-.87,11.93,11.93,0,0,1,1.5-.81,10.49,10.49,0,0,1,4.45-1,10.39,10.39,0,0,1,2.24.24l.55.14a10.34,10.34,0,0,1,1.07.36l.53.23h0q6.39,2.88,6.4,11.72v34.19a5.29,5.29,0,0,0,5.32,5.32,5.38,5.38,0,0,0,5.31-5.32V601.3A32.9,32.9,0,0,0,320.8,596.65Z" transform="translate(-245.96 -377)"/><path class="cls-1" d="M387.22,590.8a28.4,28.4,0,0,1,8.63,20.84v24.14a5,5,0,0,1-1.58,3.75,5.11,5.11,0,0,1-3.74,1.57,5.16,5.16,0,0,1-3.8-1.57,5.1,5.1,0,0,1-1.52-3.75v-1.46a28.69,28.69,0,0,1-18.83,6.78,29.47,29.47,0,1,1,20.84-50.3Zm-25.84-3a18.9,18.9,0,1,0,13.29,5.53A18,18,0,0,0,361.38,587.81Z" transform="translate(-245.96 -377)"/><path class="cls-2" d="M469.61,615.38a5.1,5.1,0,0,1-3.74,1.58,5.17,5.17,0,0,1-3.8-1.58,5.09,5.09,0,0,1-1.52-3.74,18.83,18.83,0,0,0-37.66,0v24.14a5.32,5.32,0,0,1-10.63,0V611.64a29.47,29.47,0,1,1,58.93,0A5,5,0,0,1,469.61,615.38Z" transform="translate(-245.96 -377)"/><path class="cls-2" d="M528.24,583.75a5.17,5.17,0,0,1,3.8-1.58,5.4,5.4,0,0,1,5.32,5.32,28.4,28.4,0,0,1-8.63,20.84,29,29,0,0,1-4,3.31,34,34,0,0,1,4,3.31,28.38,28.38,0,0,1,8.63,20.83,5,5,0,0,1-1.58,3.75A5.11,5.11,0,0,1,532,641.1a5.16,5.16,0,0,1-3.8-1.57,5.1,5.1,0,0,1-1.52-3.75A18.88,18.88,0,0,0,507.89,617h-14v18.82a5.32,5.32,0,0,1-10.64,0V573a5.1,5.1,0,0,1,1.58-3.74,5.23,5.23,0,0,1,7.49,0,5.09,5.09,0,0,1,1.57,3.74v33.32h14a18.8,18.8,0,0,0,18.83-18.83A5.19,5.19,0,0,1,528.24,583.75Z" transform="translate(-245.96 -377)"/><path class="cls-1" d="M583.23,582.17a29.45,29.45,0,1,1-20.84,8.63A28.4,28.4,0,0,1,583.23,582.17Zm-18.29,11.17a18.75,18.75,0,1,0,13.29-5.53A18,18,0,0,0,564.94,593.34Z" transform="translate(-245.96 -377)"/><path class="cls-2" d="M686.46,615.38a5.09,5.09,0,0,1-3.74,1.58,5.19,5.19,0,0,1-3.8-1.58,5.09,5.09,0,0,1-1.52-3.74,18.83,18.83,0,0,0-37.66,0v24.14a5.32,5.32,0,0,1-10.63,0V611.64a29.47,29.47,0,1,1,58.93,0A5,5,0,0,1,686.46,615.38Z" transform="translate(-245.96 -377)"/><path class="cls-2" d="M759,636.22a29.45,29.45,0,0,1-29.47,29.46,29.42,29.42,0,0,1-26.91-17.47,5.13,5.13,0,0,1-.11-4,5.31,5.31,0,0,1,2.82-3,5.2,5.2,0,0,1,4-.11,5.39,5.39,0,0,1,3,2.82,18.68,18.68,0,0,0,17.2,11.13,18.8,18.8,0,0,0,18.83-18.83v-2a29.51,29.51,0,0,1-39.67-1.85,28.32,28.32,0,0,1-8.62-20.78V587.49a5.18,5.18,0,0,1,1.57-3.8,5.37,5.37,0,0,1,7.49,0,5.18,5.18,0,0,1,1.57,3.8v24.15a18.83,18.83,0,0,0,37.66,0V587.49a5.19,5.19,0,0,1,5.32-5.32,5.29,5.29,0,0,1,5.32,5.32Z" transform="translate(-245.96 -377)"/><path class="cls-2" d="M775.45,587.49a5.08,5.08,0,0,1,1.57-3.74,5.23,5.23,0,0,1,7.49,0,5.08,5.08,0,0,1,1.57,3.74v.16a18.83,18.83,0,1,0,37.66,0v-.16a5.29,5.29,0,0,1,5.32-5.32,5.4,5.4,0,0,1,5.32,5.32v.16a28.4,28.4,0,0,1-8.63,20.84,29.26,29.26,0,0,1-3.64,3.09q12.27,8.08,12.27,24v.16a5,5,0,0,1-1.58,3.75,5.09,5.09,0,0,1-3.74,1.57,5.18,5.18,0,0,1-3.8-1.57,5.1,5.1,0,0,1-1.52-3.75v-.16q0-12.64-11-17h.05a22.21,22.21,0,0,0-15.84,0q-10.9,4.39-10.91,17v.16a5.32,5.32,0,0,1-10.63,0v-.16q0-15.95,12.21-24a31.87,31.87,0,0,1-3.58-3.09,28.36,28.36,0,0,1-8.63-20.84Z" transform="translate(-245.96 -377)"/><polyline class="cls-3" points="42.15 261.53 42.15 252.49 42.15 247.01 42.15 224.5"/><path class="cls-2" d="M510.12,537h0a21.56,21.56,0,0,1-21.56-21.56v-47a48.34,48.34,0,0,0-48.34-48.34h0A43.11,43.11,0,0,1,397.11,377h36.15a98.42,98.42,0,0,1,98.42,98.42v40.06A21.56,21.56,0,0,1,510.12,537Z" transform="translate(-245.96 -377)"/><path class="cls-1" d="M174.67,63.36h0a43.77,43.77,0,0,1,43.77,43.77v33A21.88,21.88,0,0,1,196.55,162h0a21.88,21.88,0,0,1-21.88-21.88V63.36A0,0,0,0,1,174.67,63.36Z"/></svg>