<svg id="Layer_1" data-name="Layer 1" xmlns="http://www.w3.org/2000/svg" viewBox="0 0 512.12 289.51"><defs><style>.cls-1{fill:#121820;}.cls-2{fill:#f57c00;}</style></defs><path class="cls-1" d="M408.17,196.41h34.45A21.88,21.88,0,0,1,464.5,218.3V328.92a43.77,43.77,0,0,1-43.77,43.77H386.28a0,0,0,0,1,0,0V218.3A21.88,21.88,0,0,1,408.17,196.41Z" transform="translate(850.9 485.92) rotate(180)"/><path class="cls-2" d="M310,369.18h0a38.52,38.52,0,0,0,38.53-38.52V246.61A86.38,86.38,0,0,1,435,160.22h0a77,77,0,0,0,77.05-77H447.41A175.88,175.88,0,0,0,271.52,259.06v71.6A38.52,38.52,0,0,0,310,369.18Z" transform="translate(0.12 -83.18)"/><path class="cls-2" d="M201.84,369.18h0a38.51,38.51,0,0,1-38.52-38.52V246.61a86.39,86.39,0,0,0-86.39-86.39h0a77,77,0,0,1-77.05-77h64.6A175.87,175.87,0,0,1,240.36,259.06v71.6A38.51,38.51,0,0,1,201.84,369.18Z" transform="translate(0.12 -83.18)"/><path class="cls-1" d="M42,113.24H76.47A43.77,43.77,0,0,1,120.24,157V267.63a21.88,21.88,0,0,1-21.88,21.88H63.91A21.88,21.88,0,0,1,42,267.63V113.24a0,0,0,0,1,0,0Z"/></svg>